HIERARCHY
ROOT Hips
{
	OFFSET 0.000000 88.474243 0.000000
	CHANNELS 6 Xposition Yposition Zposition Zrotation Yrotation Xrotation 
	JOINT Hips_Spine
	{
		OFFSET 0.000000 0.000000 0.000000
		CHANNELS 3 Zrotation Yrotation Xrotation
		JOINT Spine
		{
			OFFSET 0.005100 8.711998 -0.691000
			CHANNELS 3 Zrotation Yrotation Xrotation
			JOINT Spine1
			{
				OFFSET -0.009200 8.660301 -1.275000
				CHANNELS 3 Zrotation Yrotation Xrotation
				JOINT Spine2
				{
					OFFSET 0.006300 9.852501 -1.857000
					CHANNELS 3 Zrotation Yrotation Xrotation
					JOINT Spine2_Neck
					{
						OFFSET 0.000000 0.000000 0.000000
						CHANNELS 3 Zrotation Yrotation Xrotation
						JOINT Neck
						{
							OFFSET 0.016300 11.420799 -0.263300
							CHANNELS 3 Zrotation Yrotation Xrotation
							End Site #name: Head
							{
								OFFSET -0.019200 9.262405 2.362500
							}
						}
					}
					JOINT Spine2_LeftShoulder
					{
						OFFSET 0.000000 0.000000 0.000000
						CHANNELS 3 Zrotation Yrotation Xrotation
						JOINT LeftShoulder
						{
							OFFSET 5.616900 6.732201 -0.345700
							CHANNELS 3 Zrotation Yrotation Xrotation
							JOINT LeftArm
							{
								OFFSET 10.664888 -0.183372 -2.440700
								CHANNELS 3 Zrotation Yrotation Xrotation
								JOINT LeftForeArm
								{
									OFFSET 27.459126 0.000000 0.000000
									CHANNELS 3 Zrotation Yrotation Xrotation
									End Site #name: LeftHand
									{
										OFFSET 21.306858 0.000000 0.000000
									}
								}
							}
						}
					}
					JOINT Spine2_RightShoulder
					{
						OFFSET 0.000000 0.000000 0.000000
						CHANNELS 3 Zrotation Yrotation Xrotation
						JOINT RightShoulder
						{
							OFFSET -5.580300 6.737503 -0.344400
							CHANNELS 3 Zrotation Yrotation Xrotation
							JOINT RightArm
							{
								OFFSET -10.679335 -0.188484 -2.383900
								CHANNELS 3 Zrotation Yrotation Xrotation
								JOINT RightForeArm
								{
									OFFSET -27.503529 0.000000 0.000000
									CHANNELS 3 Zrotation Yrotation Xrotation
									End Site #name: RightHand
									{
										OFFSET -21.306808 0.000000 0.000000
									}
								}
							}
						}
					}
				}
			}
		}
	}
	JOINT Hips_LeftUpLeg
	{
		OFFSET 0.000000 0.000000 0.000000
		CHANNELS 3 Zrotation Yrotation Xrotation
		JOINT LeftUpLeg
		{
			OFFSET 6.857700 -6.739601 0.312100
			CHANNELS 3 Zrotation Yrotation Xrotation
			JOINT LeftLeg
			{
				OFFSET -0.367590 -34.731552 -4.572400
				CHANNELS 3 Zrotation Yrotation Xrotation
				End Site #name: LeftFoot
				{
					OFFSET 0.367590 -34.656704 -6.067400
				}
			}
		}
	}
	JOINT Hips_RightUpLeg
	{
		OFFSET 0.000000 0.000000 0.000000
		CHANNELS 3 Zrotation Yrotation Xrotation
		JOINT RightUpLeg
		{
			OFFSET -6.876100 -6.733299 0.301000
			CHANNELS 3 Zrotation Yrotation Xrotation
			JOINT RightLeg
			{
				OFFSET 0.347353 -34.795158 -4.515900
				CHANNELS 3 Zrotation Yrotation Xrotation
				End Site #name: RightFoot
				{
					OFFSET -0.347353 -34.589367 -6.070300
				}
			}
		}
	}
}
MOTION
Frames: 16
Frame Time: 0.041667
0.048398 -0.015942 -0.100944 -176.341355 73.361751 -173.123244 -0.000000 -0.000000 0.000000 -3.498984 2.714242 -0.548302 1.643693 -0.123023 2.599956 0.000000 0.000000 0.000000 1.965676 -1.032739 0.365288 -1.384750 -5.158941 -2.792540 1.120456 0.039562 0.822218 -9.371334 -1.522159 0.893747 -74.133899 -4.485709 9.198135 -0.300018 -21.963581 2.407196 0.914161 -0.873742 2.380157 17.198254 11.958111 4.895541 47.826252 16.017134 -14.404899 -8.297818 73.185613 -3.511655 0.000000 -0.000000 -0.000000 -6.363243 16.933043 -15.420517 -5.149004 -27.384870 -0.104960 0.000000 -0.000000 -0.000000 -6.462917 -21.460654 -11.661503 -12.509850 -7.183725 16.539337 
0.044938 -0.149419 -0.151887 -174.455109 87.078299 -169.137264 -0.000000 -0.000000 0.000000 -5.573566 2.019777 2.401098 2.400107 -0.377590 2.254049 0.000000 0.000000 0.000000 2.332744 -0.834083 1.758738 -0.866825 -8.838501 -2.616026 1.657528 -0.309334 0.583514 -7.077507 -4.628378 1.120632 -78.064944 -13.559384 5.203228 -1.483547 -19.513432 1.861151 2.307881 -1.133974 2.173967 22.519587 13.229796 4.202785 48.876986 16.032800 -11.816392 -4.714259 62.023380 -0.315426 0.000000 -0.000000 -0.000000 -5.689791 16.518287 -15.032065 -3.738022 -26.167833 -3.704904 0.000000 -0.000000 -0.000000 -7.307923 -23.896771 -11.538494 -11.042628 -5.069902 17.040532 
0.154802 -0.179819 -0.146946 -175.733162 86.332999 -169.632638 -0.000000 -0.000000 0.000000 -4.053641 -0.986941 3.268714 2.844273 -0.730527 2.139011 0.000000 0.000000 0.000000 2.929263 -1.141141 2.281977 -0.661623 -14.359194 -2.551308 1.841127 -0.463842 0.399510 -6.503321 -3.525539 0.408013 -77.785232 -14.348624 -0.123297 -1.260666 -13.523618 1.974533 2.645300 -1.477260 1.923538 23.846895 14.816097 4.945559 50.618898 17.569968 -7.113602 -5.043527 60.374584 -0.028777 0.000000 0.000000 -0.000000 -4.785658 16.987053 -14.575619 -3.013148 -25.422219 -4.222825 -0.000000 -0.000000 -0.000000 -7.001000 -24.977124 -10.640843 -10.618420 -6.244964 17.466493 
0.267695 -0.218435 -0.177574 -171.561282 83.171971 -165.995397 -0.000000 -0.000000 0.000000 -2.819120 -3.299599 4.166971 2.475719 -1.146350 2.086937 0.000000 0.000000 0.000000 2.847102 -1.600377 2.619287 -0.759804 -17.736439 -2.030101 1.642156 -0.957821 0.247041 -6.014086 -2.896601 -0.076723 -78.441388 -16.390512 -0.421175 -1.154679 -10.634055 1.940290 2.411021 -2.212548 1.853945 22.823936 14.640765 5.946931 51.844764 17.738376 -5.719158 -6.094756 65.774881 -1.158284 0.000000 0.000000 -0.000000 -3.933231 17.443446 -13.436262 -2.614875 -25.667676 -4.836175 -0.000000 -0.000000 -0.000000 -6.883251 -27.750716 -10.173687 -11.103067 -7.474803 17.473877 
0.382739 -0.243070 -0.240881 -174.095542 77.801595 -168.836312 -0.000000 -0.000000 0.000000 -1.149374 -4.276537 4.833845 1.771451 -1.417466 1.990562 0.000000 0.000000 0.000000 2.345696 -1.863594 3.022851 0.348373 -19.769328 -1.365893 1.160799 -1.345206 0.272623 -5.688310 -1.767612 -0.808577 -78.182530 -17.712505 0.568378 -1.013029 -9.965426 2.183509 1.695763 -2.683112 1.829562 21.429422 13.893955 7.698398 53.311114 17.573309 -3.968275 -8.116420 73.661630 -3.465685 0.000000 0.000000 -0.000000 -3.388337 17.811287 -12.694584 -2.523936 -26.365508 -5.114772 -0.000000 -0.000000 -0.000000 -6.770111 -30.103503 -9.751344 -12.079352 -8.573072 17.581753 
0.505098 -0.257600 -0.320625 -176.510501 73.172243 -171.150466 -0.000000 -0.000000 0.000000 0.106923 -4.382837 5.707786 0.963848 -1.627408 2.028665 0.000000 0.000000 0.000000 1.563028 -1.920250 3.285437 1.149400 -21.039056 -0.577178 0.612782 -1.537355 0.301940 -5.680860 -1.026545 -1.049073 -77.666361 -18.174624 1.641376 -0.205449 -10.933977 3.150897 1.010493 -2.823652 1.721870 20.047054 13.421040 8.173037 54.691001 16.781918 -2.068658 -11.457979 79.284809 -7.022086 0.000000 0.000000 -0.000000 -3.305233 17.719929 -12.684591 -2.564452 -26.697198 -5.048299 -0.000000 -0.000000 -0.000000 -6.639427 -32.100337 -9.845027 -12.946103 -9.376994 17.922692 
0.627483 -0.262131 -0.411166 -178.810941 70.014309 -172.932958 -0.000000 -0.000000 0.000000 0.710481 -3.932349 6.295202 0.265137 -1.779227 2.252982 0.000000 0.000000 0.000000 0.851501 -1.882100 3.404761 1.293505 -22.168383 -0.334492 0.122065 -1.619770 0.441524 -5.896495 -0.366401 -1.118189 -76.861044 -18.519222 2.958300 1.234617 -12.295291 5.115599 0.402451 -2.833558 1.634878 18.938704 14.327375 8.111598 55.651574 15.432161 -0.540722 -14.265226 81.710716 -9.983133 0.000000 0.000000 -0.000000 -3.413553 17.355054 -13.075302 -2.588683 -26.842047 -5.105655 -0.000000 -0.000000 -0.000000 -6.624449 -33.538290 -10.218640 -13.391676 -10.149083 18.149736 
0.744810 -0.261446 -0.504667 179.437677 67.977009 -174.121384 -0.000000 -0.000000 0.000000 0.954023 -3.597271 6.506480 -0.225588 -1.850121 2.640497 0.000000 0.000000 0.000000 0.457278 -1.835944 3.607425 1.484791 -22.988968 -0.384032 -0.206974 -1.632833 0.677352 -6.155559 -0.247826 -0.852780 -76.020080 -19.038400 4.105506 2.159974 -13.553838 6.307786 0.003222 -2.832726 1.629647 18.088973 15.004324 7.589273 56.184519 14.183729 0.296202 -13.955116 81.528924 -9.750944 0.000000 0.000000 -0.000000 -3.497166 16.909710 -13.506499 -2.577926 -26.803166 -5.209841 -0.000000 -0.000000 -0.000000 -6.659580 -34.172390 -10.717408 -13.316465 -10.753214 18.212607 
0.860343 -0.258714 -0.592691 178.156203 66.174075 -174.983614 -0.000000 -0.000000 0.000000 0.768004 -3.530028 6.473490 -0.444084 -1.879765 3.009013 0.000000 0.000000 0.000000 0.272826 -1.807226 3.811985 1.726604 -23.667647 -0.352713 -0.383177 -1.639788 0.893161 -6.318943 -0.099731 -0.669481 -75.385219 -19.564605 4.838369 2.627616 -14.932015 6.722415 -0.211567 -2.878993 1.676325 17.520452 15.657758 7.036410 56.415225 13.199095 0.708777 -11.858887 79.561222 -7.674746 0.000000 0.000000 -0.000000 -3.550548 16.527625 -13.746920 -2.535433 -26.669921 -5.275917 -0.000000 -0.000000 -0.000000 -6.753201 -34.154328 -11.127765 -13.014015 -11.247673 18.169868 
0.974451 -0.255401 -0.677091 177.245537 64.370481 -175.664450 -0.000000 -0.000000 0.000000 0.490839 -3.639964 6.306061 -0.563244 -1.912037 3.305585 0.000000 0.000000 0.000000 0.188512 -1.805864 4.005454 2.028962 -24.317732 -0.191041 -0.484970 -1.664149 1.085104 -6.283651 -0.181771 -0.478090 -74.971270 -20.115983 5.152772 2.839212 -16.476504 6.683229 -0.343547 -2.945319 1.758287 17.176055 16.181948 6.583054 56.550620 12.593199 0.879667 -10.831411 78.225367 -6.660236 0.000000 0.000000 -0.000000 -3.571707 16.288696 -13.792345 -2.491946 -26.500112 -5.235078 -0.000000 -0.000000 -0.000000 -6.901232 -33.707862 -11.401408 -12.395988 -11.417453 18.097590 
1.087100 -0.252247 -0.760756 176.702639 62.643857 -176.134021 -0.000000 -0.000000 0.000000 0.288404 -3.724608 6.374192 -0.618615 -1.965683 3.563604 0.000000 0.000000 0.000000 0.152795 -1.821302 4.178020 2.373149 -24.884714 -0.094192 -0.546852 -1.701943 1.267861 -6.098462 -0.382861 -0.303530 -74.714025 -20.587507 5.221421 2.932832 -18.111667 6.322767 -0.432271 -3.029537 1.870442 16.968428 16.512545 6.299500 56.697527 12.232375 0.941448 -11.233937 78.617096 -7.071422 0.000000 0.000000 -0.000000 -3.567414 16.168847 -13.644970 -2.432038 -26.336814 -5.209279 -0.000000 -0.000000 -0.000000 -7.046476 -32.752128 -11.558002 -11.708869 -11.474307 18.063735 
1.198027 -0.249759 -0.846788 176.382253 60.977788 -176.448568 -0.000000 -0.000000 0.000000 0.168568 -3.834737 6.487168 -0.643614 -2.039971 3.771695 0.000000 0.000000 0.000000 0.137109 -1.851411 4.288660 2.677416 -25.310434 -0.031794 -0.580661 -1.747236 1.431584 -5.840568 -0.583084 -0.176030 -74.560077 -21.049057 5.360936 3.037068 -19.843359 5.903665 -0.508924 -3.116316 2.015104 16.866886 16.692859 6.156622 56.878458 11.970139 0.722067 -13.772686 80.891312 -9.605988 0.000000 0.000000 -0.000000 -3.562383 16.130381 -13.409615 -2.373473 -26.296660 -5.221273 0.000000 -0.000000 -0.000000 -7.140346 -31.576059 -11.682192 -11.046972 -11.364487 18.055928 
1.306702 -0.247982 -0.937035 176.216073 59.582741 -176.628074 -0.000000 -0.000000 0.000000 0.132902 -4.016341 6.600411 -0.649762 -2.130774 3.952583 0.000000 0.000000 0.000000 0.142777 -1.897207 4.395237 2.948646 -25.686482 0.043885 -0.593155 -1.803911 1.573315 -5.594616 -0.660495 -0.132495 -74.449910 -21.465041 5.565519 3.258733 -21.499059 5.492931 -0.549301 -3.206443 2.171086 16.816840 16.766343 6.140970 57.142837 11.867069 0.342303 -22.329836 84.558735 -18.140432 0.000000 0.000000 -0.000000 -3.544390 16.138403 -13.153440 -2.322097 -26.385802 -5.298069 0.000000 0.000000 -0.000000 -7.167347 -30.551228 -11.807745 -10.568534 -11.327712 18.077493 
1.412116 -0.246719 -1.031178 176.154147 58.524435 -176.700712 -0.000000 -0.000000 0.000000 0.169628 -4.266135 6.639775 -0.636698 -2.233193 4.126566 0.000000 0.000000 0.000000 0.164865 -1.951440 4.505891 3.186770 -26.040552 0.133147 -0.590668 -1.867873 1.705018 -5.404562 -0.600330 -0.159351 -74.296096 -21.743094 5.819613 3.485667 -23.029741 5.059132 -0.559317 -3.305609 2.310370 16.793032 16.750355 6.165627 57.271434 11.937566 -0.203375 -77.006033 88.003964 -72.778428 0.000000 0.000000 -0.000000 -3.505448 16.159131 -12.875016 -2.269194 -26.605850 -5.502213 0.000000 0.000000 -0.000000 -7.118512 -29.780306 -11.952235 -10.326567 -11.357482 18.135632 
1.513426 -0.246570 -1.128556 176.138448 57.719263 -176.708068 0.000000 -0.000000 0.000000 0.301097 -4.513575 6.649390 -0.609795 -2.346915 4.297502 0.000000 0.000000 0.000000 0.201525 -2.014059 4.630004 3.430561 -26.432143 0.214516 -0.577191 -1.941807 1.826333 -5.260589 -0.434267 -0.234246 -74.137306 -21.881584 5.996062 3.673268 -24.353992 4.646963 -0.533590 -3.416169 2.457557 16.843720 16.733404 6.208512 57.445212 12.057545 -0.675557 -157.178646 85.341405 -152.909725 0.000000 0.000000 -0.000000 -3.447529 16.179130 -12.593876 -2.204780 -26.939400 -5.815488 0.000000 0.000000 -0.000000 -7.007029 -29.342183 -12.129908 -10.296493 -11.445722 18.259443 
1.609695 -0.248832 -1.228926 176.151182 57.059520 -176.675362 0.000000 -0.000000 0.000000 0.511669 -4.756107 6.622466 -0.571714 -2.468063 4.472545 0.000000 0.000000 0.000000 0.251929 -2.081604 4.759006 3.694082 -26.897747 0.274896 -0.551181 -2.017321 1.941237 -5.141827 -0.231819 -0.338282 -74.041430 -21.935972 6.177241 3.848432 -25.379488 4.330990 -0.482771 -3.530267 2.610385 16.914914 16.771286 6.156541 57.593606 12.135169 -1.119612 -169.267602 81.047094 -164.966907 0.000000 0.000000 -0.000000 -3.375076 16.200122 -12.309129 -2.124633 -27.341053 -6.208704 0.000000 0.000000 -0.000000 -6.846363 -29.208504 -12.320057 -10.362385 -11.532024 18.419312 
